<svg xmlns="http://www.w3.org/2000/svg" viewBox="0 0 30 30" width="30px" height="30px"><path fill="#c2e8ff" d="M1.5 4.5H25.5V28.5H1.5z"/><path fill="#7496c4" d="M25,5v23H2V5H25 M26,4H1v25h25V4L26,4z"/><path fill="#c2e8ff" d="M24 9H26V14H24zM16 4H21V6H16z"/><g><path fill="#8bb7f0" d="M13.707 13L21.707 5 18.207 1.5 28.5 1.5 28.5 11.793 25 8.293 17 16.293z"/><path fill="#4e7ab5" d="M28,2v8.586l-2.293-2.293L25,7.586l-0.707,0.707L17,15.586L14.414,13l7.293-7.293L22.414,5 l-0.707-0.707L19.414,2H28 M29,1H17l4,4l-8,8l4,4l8-8l4,4V1L29,1z"/></g></svg>